<svg width="58" height="49" viewBox="0 0 58 49" fill="none" xmlns="http://www.w3.org/2000/svg">
  <path fill-rule="evenodd" clip-rule="evenodd" d="M29 5.63332C22.35 0.0328603 14.0769 -1.72705 7.78014 1.88261C-0.955194 6.89022 -2.57901 20.3355 4.15325 31.9135C10.109 42.156 19.9846 46.3581 29 49C38.8039 46.232 47.891 42.156 53.8467 31.9135C60.579 20.3355 58.9552 6.89022 50.2199 1.88261C43.9231 -1.72705 35.65 0.0328603 29 5.63332ZM29.0103 46.9172C38.4033 44.2073 46.6587 40.2966 52.1178 30.9081C55.2869 25.4579 56.4473 19.6356 55.8481 14.674C55.2491 9.71451 52.9247 5.73848 49.2252 3.61773C43.9067 0.568844 36.5481 1.89127 30.2883 7.16309L29 8.2481L27.7117 7.16309C21.4519 1.89127 14.0933 0.568845 8.77481 3.61773C5.07535 5.73848 2.75088 9.71451 2.15192 14.674C1.55269 19.6356 2.71308 25.4579 5.88221 30.9081C11.3242 40.2671 20.2974 44.3088 29.0103 46.9172Z" fill="white" />
  <path fill-rule="evenodd" clip-rule="evenodd" d="M29 11.5C23.4966 7.27108 16.6498 4.69585 11.4387 7.42152C4.20949 11.2028 2.86565 21.3553 8.43718 30.0979C13.3661 37.832 21.539 42.5051 29 44.5C37.1136 42.4099 44.6339 37.832 49.5628 30.0979C55.1343 21.3553 53.7905 11.2028 46.5613 7.42152C41.3502 4.69585 34.5034 7.27108 29 11.5ZM29.0101 42.4285C36.5299 40.3828 43.3705 36.0931 47.8762 29.023C53.107 20.8151 51.4018 12.2104 45.6343 9.19373C43.6079 8.13384 41.1463 8.03816 38.4163 8.78238C35.6815 9.52787 32.8254 11.0827 30.2186 13.0859L29 14.0223L27.7814 13.0859C25.1746 11.0827 22.3184 9.52787 19.5837 8.78238C16.8537 8.03816 14.3921 8.13384 12.3657 9.19373C6.59821 12.2104 4.89296 20.8151 10.1238 29.023C14.6079 36.0593 22.0411 40.4543 29.0101 42.4285Z" fill="white" />
</svg>
  