<svg width="943" height="796" viewBox="0 0 943 796" fill="none" xmlns="http://www.w3.org/2000/svg">
  <path fill-rule="evenodd" clip-rule="evenodd" d="M471.5 91.5127C363.381 0.533813 228.871 -28.0558 126.494 30.5829C-15.5301 111.931 -41.9311 330.348 67.5262 518.431C164.358 684.82 324.922 753.083 471.5 796C630.898 751.034 778.642 684.82 875.474 518.431C984.931 330.348 958.53 111.931 816.506 30.5829C714.129 -28.0558 579.619 0.533813 471.5 91.5127ZM471.639 767.888C625.537 723.696 762.025 659.694 852.138 504.85C904.204 415.384 923.389 319.615 913.49 237.721C903.596 155.86 865.078 89.5191 803.086 54.0118C713.907 2.93204 591.734 25.6272 488.884 112.172L471.5 126.8L454.116 112.172C351.266 25.6271 229.093 2.93204 139.914 54.0118C77.9222 89.5191 39.4044 155.86 29.5095 237.721C19.6107 319.615 38.796 415.384 90.8621 504.85C180.741 659.291 329.087 725.41 471.639 767.888Z" fill="#FF65A8" />
</svg>
  