<svg width="783" height="619" viewBox="0 0 783 619" fill="none" xmlns="http://www.w3.org/2000/svg">
  <path fill-rule="evenodd" clip-rule="evenodd" d="M391.5 84.285C301.725 15.7618 190.038 -25.9659 105.032 18.1994C-12.8951 79.4688 -34.8166 243.976 56.0689 385.635C136.471 510.955 269.792 586.676 391.5 619C523.853 585.132 646.529 510.955 726.931 385.635C817.817 243.976 795.895 79.4688 677.968 18.1994C592.962 -25.9659 481.275 15.7618 391.5 84.285ZM391.634 591.056C516.041 557.772 629.539 487.437 704.206 371.055C790.415 236.685 763.652 93.1435 665.52 42.1586C630.802 24.121 589.045 22.7341 543.579 35.0455C498.058 47.3717 450.81 72.9815 407.882 105.747L391.5 118.251L375.118 105.747C332.19 72.9815 284.942 47.3717 239.421 35.0455C193.955 22.7341 152.197 24.121 117.48 42.1586C19.3481 93.1435 -7.41501 236.685 78.794 371.055C153.168 486.979 276.5 558.996 391.634 591.056Z" fill="#FF3D91" />
</svg>
  