<svg width="48" height="48" viewBox="0 0 48 48" fill="none" xmlns="http://www.w3.org/2000/svg">
  <path d="M36.728 34.728L24 47.456L11.272 34.728C8.75467 32.2106 7.04036 29.0033 6.34584 25.5117C5.65133 22.02 6.0078 18.4009 7.37018 15.1118C8.73257 11.8227 11.0397 9.01154 13.9998 7.03368C16.9598 5.05583 20.4399 4.00015 24 4.00015C27.56 4.00015 31.0402 5.05583 34.0002 7.03368C36.9603 9.01154 39.2674 11.8227 40.6298 15.1118C41.9922 18.4009 42.3487 22.02 41.6541 25.5117C40.9596 29.0033 39.2453 32.2106 36.728 34.728ZM24 30C26.1217 30 28.1566 29.1571 29.6568 27.6569C31.1571 26.1566 32 24.1217 32 22C32 19.8783 31.1571 17.8434 29.6568 16.3431C28.1566 14.8429 26.1217 14 24 14C21.8783 14 19.8434 14.8429 18.3431 16.3431C16.8428 17.8434 16 19.8783 16 22C16 24.1217 16.8428 26.1566 18.3431 27.6569C19.8434 29.1571 21.8783 30 24 30ZM24 26C22.9391 26 21.9217 25.5786 21.1716 24.8284C20.4214 24.0783 20 23.0609 20 22C20 20.9391 20.4214 19.9217 21.1716 19.1716C21.9217 18.4214 22.9391 18 24 18C25.0609 18 26.0783 18.4214 26.8284 19.1716C27.5786 19.9217 28 20.9391 28 22C28 23.0609 27.5786 24.0783 26.8284 24.8284C26.0783 25.5786 25.0609 26 24 26Z" fill="white" />
</svg>
